<mxfile host="app.diagrams.net" agent="Mozilla/5.0 (Windows NT 10.0; Win64; x64) AppleWebKit/537.36 (KHTML, like Gecko) Chrome/134.0.0.0 Safari/537.36 Edg/134.0.0.0" version="26.0.16">
  <diagram name="Page-1" id="M-gKZGiricoeosnPaXWC">
    <mxGraphModel dx="2610" dy="2103" grid="1" gridSize="10" guides="1" tooltips="1" connect="1" arrows="1" fold="1" page="1" pageScale="1" pageWidth="827" pageHeight="1169" math="0" shadow="0">
      <root>
        <mxCell id="0" />
        <mxCell id="1" parent="0" />
        <mxCell id="n2kh0YCEqvJ2ROsxbAbJ-4" value="" style="rounded=1;whiteSpace=wrap;html=1;strokeWidth=3;" vertex="1" parent="1">
          <mxGeometry x="50" y="60" width="710" height="110" as="geometry" />
        </mxCell>
        <mxCell id="n2kh0YCEqvJ2ROsxbAbJ-1" value="VkInstance" style="rounded=0;whiteSpace=wrap;html=1;fillColor=#f8cecc;strokeColor=#b85450;" vertex="1" parent="1">
          <mxGeometry x="80" y="85" width="120" height="60" as="geometry" />
        </mxCell>
        <mxCell id="n2kh0YCEqvJ2ROsxbAbJ-2" value="VkPhysicalDevice" style="rounded=0;whiteSpace=wrap;html=1;fillColor=#f8cecc;strokeColor=#b85450;" vertex="1" parent="1">
          <mxGeometry x="210" y="85" width="120" height="60" as="geometry" />
        </mxCell>
        <mxCell id="n2kh0YCEqvJ2ROsxbAbJ-3" value="Vk&lt;span style=&quot;background-color: transparent; color: light-dark(rgb(0, 0, 0), rgb(255, 255, 255));&quot;&gt;Device&lt;/span&gt;" style="rounded=0;whiteSpace=wrap;html=1;fillColor=#f8cecc;strokeColor=#b85450;" vertex="1" parent="1">
          <mxGeometry x="340" y="85" width="120" height="60" as="geometry" />
        </mxCell>
        <mxCell id="n2kh0YCEqvJ2ROsxbAbJ-5" value="aug::Context" style="text;html=1;align=center;verticalAlign=middle;whiteSpace=wrap;rounded=0;" vertex="1" parent="1">
          <mxGeometry x="370" y="55" width="60" height="30" as="geometry" />
        </mxCell>
        <mxCell id="n2kh0YCEqvJ2ROsxbAbJ-6" value="VkQueue" style="rounded=0;whiteSpace=wrap;html=1;dashed=1;fillColor=#f8cecc;strokeColor=#b85450;" vertex="1" parent="1">
          <mxGeometry x="470" y="85" width="120" height="60" as="geometry" />
        </mxCell>
        <mxCell id="n2kh0YCEqvJ2ROsxbAbJ-7" value="VkCommandPool" style="rounded=0;whiteSpace=wrap;html=1;dashed=1;fillColor=#f8cecc;strokeColor=#b85450;" vertex="1" parent="1">
          <mxGeometry x="600" y="85" width="120" height="60" as="geometry" />
        </mxCell>
        <mxCell id="n2kh0YCEqvJ2ROsxbAbJ-8" value="" style="rounded=1;whiteSpace=wrap;html=1;" vertex="1" parent="1">
          <mxGeometry x="421.25" y="380" width="577.5" height="110" as="geometry" />
        </mxCell>
        <mxCell id="n2kh0YCEqvJ2ROsxbAbJ-9" value="VkSurfaceKHR" style="rounded=0;whiteSpace=wrap;html=1;fillColor=#f8cecc;strokeColor=#b85450;" vertex="1" parent="1">
          <mxGeometry x="451.25" y="405" width="120" height="60" as="geometry" />
        </mxCell>
        <mxCell id="n2kh0YCEqvJ2ROsxbAbJ-10" value="VkFramebuffer" style="rounded=0;whiteSpace=wrap;html=1;fillColor=#f8cecc;strokeColor=#b85450;" vertex="1" parent="1">
          <mxGeometry x="586.25" y="405" width="120" height="60" as="geometry" />
        </mxCell>
        <mxCell id="n2kh0YCEqvJ2ROsxbAbJ-11" value="aug::Window" style="text;html=1;align=center;verticalAlign=middle;whiteSpace=wrap;rounded=0;" vertex="1" parent="1">
          <mxGeometry x="680" y="380" width="60" height="30" as="geometry" />
        </mxCell>
        <mxCell id="n2kh0YCEqvJ2ROsxbAbJ-12" value="SwapChain" style="rounded=0;whiteSpace=wrap;html=1;fillColor=#dae8fc;strokeColor=#6c8ebf;" vertex="1" parent="1">
          <mxGeometry x="718.75" y="405" width="120" height="60" as="geometry" />
        </mxCell>
        <mxCell id="n2kh0YCEqvJ2ROsxbAbJ-13" value="" style="rounded=1;whiteSpace=wrap;html=1;" vertex="1" parent="1">
          <mxGeometry x="560" y="530" width="437.5" height="110" as="geometry" />
        </mxCell>
        <mxCell id="n2kh0YCEqvJ2ROsxbAbJ-14" value="VkSwapChainKHR" style="rounded=0;whiteSpace=wrap;html=1;fillColor=#f8cecc;strokeColor=#b85450;" vertex="1" parent="1">
          <mxGeometry x="590" y="555" width="120" height="60" as="geometry" />
        </mxCell>
        <mxCell id="n2kh0YCEqvJ2ROsxbAbJ-15" value="VkExtent2D" style="rounded=0;whiteSpace=wrap;html=1;fillColor=#f8cecc;strokeColor=#b85450;" vertex="1" parent="1">
          <mxGeometry x="725" y="555" width="120" height="60" as="geometry" />
        </mxCell>
        <mxCell id="n2kh0YCEqvJ2ROsxbAbJ-16" value="aug::SwapChain" style="text;html=1;align=center;verticalAlign=middle;whiteSpace=wrap;rounded=0;" vertex="1" parent="1">
          <mxGeometry x="748.75" y="530" width="60" height="30" as="geometry" />
        </mxCell>
        <mxCell id="n2kh0YCEqvJ2ROsxbAbJ-17" value="VkFormat" style="rounded=0;whiteSpace=wrap;html=1;fillColor=#f8cecc;strokeColor=#b85450;dashed=1;" vertex="1" parent="1">
          <mxGeometry x="857.5" y="555" width="120" height="60" as="geometry" />
        </mxCell>
        <mxCell id="n2kh0YCEqvJ2ROsxbAbJ-18" value="GLFWwindow" style="rounded=0;whiteSpace=wrap;html=1;fillColor=#d5e8d4;strokeColor=#82b366;" vertex="1" parent="1">
          <mxGeometry x="858.75" y="405" width="120" height="60" as="geometry" />
        </mxCell>
        <mxCell id="n2kh0YCEqvJ2ROsxbAbJ-19" value="" style="endArrow=none;dashed=1;html=1;dashPattern=1 3;strokeWidth=2;rounded=0;exitX=0.5;exitY=0;exitDx=0;exitDy=0;entryX=0.5;entryY=1;entryDx=0;entryDy=0;" edge="1" parent="1" source="n2kh0YCEqvJ2ROsxbAbJ-13" target="n2kh0YCEqvJ2ROsxbAbJ-12">
          <mxGeometry width="50" height="50" relative="1" as="geometry">
            <mxPoint x="718.75" y="510" as="sourcePoint" />
            <mxPoint x="818.75" y="420" as="targetPoint" />
          </mxGeometry>
        </mxCell>
        <mxCell id="n2kh0YCEqvJ2ROsxbAbJ-21" value="" style="rounded=1;whiteSpace=wrap;html=1;" vertex="1" parent="1">
          <mxGeometry x="70" y="220" width="730" height="110" as="geometry" />
        </mxCell>
        <mxCell id="n2kh0YCEqvJ2ROsxbAbJ-22" value="VkSemaphore[]" style="rounded=0;whiteSpace=wrap;html=1;fillColor=#f8cecc;strokeColor=#b85450;" vertex="1" parent="1">
          <mxGeometry x="100" y="245" width="120" height="60" as="geometry" />
        </mxCell>
        <mxCell id="n2kh0YCEqvJ2ROsxbAbJ-23" value="VkFence[]" style="rounded=0;whiteSpace=wrap;html=1;fillColor=#f8cecc;strokeColor=#b85450;" vertex="1" parent="1">
          <mxGeometry x="235" y="245" width="120" height="60" as="geometry" />
        </mxCell>
        <mxCell id="n2kh0YCEqvJ2ROsxbAbJ-24" value="aug::Application" style="text;html=1;align=center;verticalAlign=middle;whiteSpace=wrap;rounded=0;" vertex="1" parent="1">
          <mxGeometry x="400" y="220" width="60" height="30" as="geometry" />
        </mxCell>
        <mxCell id="n2kh0YCEqvJ2ROsxbAbJ-25" value="Window" style="rounded=0;whiteSpace=wrap;html=1;fillColor=#dae8fc;strokeColor=#6c8ebf;" vertex="1" parent="1">
          <mxGeometry x="650" y="245" width="120" height="60" as="geometry" />
        </mxCell>
        <mxCell id="n2kh0YCEqvJ2ROsxbAbJ-26" value="VkRenderPass" style="rounded=0;whiteSpace=wrap;html=1;fillColor=#f8cecc;strokeColor=#b85450;" vertex="1" parent="1">
          <mxGeometry x="370" y="245" width="120" height="60" as="geometry" />
        </mxCell>
        <mxCell id="n2kh0YCEqvJ2ROsxbAbJ-27" value="VkCommandBuffer" style="rounded=0;whiteSpace=wrap;html=1;fillColor=#f8cecc;strokeColor=#b85450;" vertex="1" parent="1">
          <mxGeometry x="510" y="245" width="120" height="60" as="geometry" />
        </mxCell>
        <mxCell id="n2kh0YCEqvJ2ROsxbAbJ-28" value="" style="endArrow=none;dashed=1;html=1;dashPattern=1 3;strokeWidth=2;rounded=0;entryX=0.5;entryY=1;entryDx=0;entryDy=0;exitX=0.5;exitY=0;exitDx=0;exitDy=0;" edge="1" parent="1" source="n2kh0YCEqvJ2ROsxbAbJ-11" target="n2kh0YCEqvJ2ROsxbAbJ-25">
          <mxGeometry width="50" height="50" relative="1" as="geometry">
            <mxPoint x="450" y="280" as="sourcePoint" />
            <mxPoint x="500" y="230" as="targetPoint" />
          </mxGeometry>
        </mxCell>
        <mxCell id="n2kh0YCEqvJ2ROsxbAbJ-29" value="" style="rounded=1;whiteSpace=wrap;html=1;strokeWidth=3;" vertex="1" parent="1">
          <mxGeometry x="-238.75" y="-135" width="110" height="35" as="geometry" />
        </mxCell>
        <mxCell id="n2kh0YCEqvJ2ROsxbAbJ-30" value="Singleton" style="text;html=1;align=center;verticalAlign=middle;whiteSpace=wrap;rounded=0;" vertex="1" parent="1">
          <mxGeometry x="-213.75" y="-132.5" width="60" height="30" as="geometry" />
        </mxCell>
        <mxCell id="n2kh0YCEqvJ2ROsxbAbJ-31" value="" style="rounded=1;whiteSpace=wrap;html=1;strokeWidth=1;" vertex="1" parent="1">
          <mxGeometry x="-240" y="-80" width="110" height="35" as="geometry" />
        </mxCell>
        <mxCell id="n2kh0YCEqvJ2ROsxbAbJ-32" value="Class" style="text;html=1;align=center;verticalAlign=middle;whiteSpace=wrap;rounded=0;" vertex="1" parent="1">
          <mxGeometry x="-215" y="-77.5" width="60" height="30" as="geometry" />
        </mxCell>
        <mxCell id="n2kh0YCEqvJ2ROsxbAbJ-33" value="Legend:" style="text;html=1;align=center;verticalAlign=middle;whiteSpace=wrap;rounded=0;" vertex="1" parent="1">
          <mxGeometry x="-215" y="-180" width="60" height="30" as="geometry" />
        </mxCell>
        <mxCell id="n2kh0YCEqvJ2ROsxbAbJ-34" value="Vulkan" style="rounded=0;whiteSpace=wrap;html=1;fillColor=#f8cecc;strokeColor=#b85450;" vertex="1" parent="1">
          <mxGeometry x="-221.25" y="-20" width="75" height="37.5" as="geometry" />
        </mxCell>
        <mxCell id="n2kh0YCEqvJ2ROsxbAbJ-35" value="Augusta" style="rounded=0;whiteSpace=wrap;html=1;fillColor=#dae8fc;strokeColor=#6c8ebf;" vertex="1" parent="1">
          <mxGeometry x="-221.25" y="37.5" width="75" height="37.5" as="geometry" />
        </mxCell>
        <mxCell id="n2kh0YCEqvJ2ROsxbAbJ-36" value="External" style="rounded=0;whiteSpace=wrap;html=1;fillColor=#d5e8d4;strokeColor=#82b366;" vertex="1" parent="1">
          <mxGeometry x="-221.25" y="93" width="75" height="37.5" as="geometry" />
        </mxCell>
        <mxCell id="n2kh0YCEqvJ2ROsxbAbJ-37" value="" style="rounded=1;whiteSpace=wrap;html=1;" vertex="1" parent="1">
          <mxGeometry x="-90" y="540" width="437.5" height="110" as="geometry" />
        </mxCell>
        <mxCell id="n2kh0YCEqvJ2ROsxbAbJ-38" value="VkBuffer" style="rounded=0;whiteSpace=wrap;html=1;fillColor=#f8cecc;strokeColor=#b85450;" vertex="1" parent="1">
          <mxGeometry x="-60" y="565" width="120" height="60" as="geometry" />
        </mxCell>
        <mxCell id="n2kh0YCEqvJ2ROsxbAbJ-39" value="VmaAllocation" style="rounded=0;whiteSpace=wrap;html=1;fillColor=#f8cecc;strokeColor=#b85450;" vertex="1" parent="1">
          <mxGeometry x="75" y="565" width="120" height="60" as="geometry" />
        </mxCell>
        <mxCell id="n2kh0YCEqvJ2ROsxbAbJ-40" value="aug::Buffer" style="text;html=1;align=center;verticalAlign=middle;whiteSpace=wrap;rounded=0;" vertex="1" parent="1">
          <mxGeometry x="98.75" y="540" width="60" height="30" as="geometry" />
        </mxCell>
        <mxCell id="n2kh0YCEqvJ2ROsxbAbJ-41" value="VmaAllocationBuffer" style="rounded=0;whiteSpace=wrap;html=1;fillColor=#f8cecc;strokeColor=#b85450;" vertex="1" parent="1">
          <mxGeometry x="207.5" y="565" width="120" height="60" as="geometry" />
        </mxCell>
        <mxCell id="n2kh0YCEqvJ2ROsxbAbJ-43" value="temporary" style="rounded=0;whiteSpace=wrap;html=1;dashed=1;" vertex="1" parent="1">
          <mxGeometry x="-222.5" y="145" width="75" height="37.5" as="geometry" />
        </mxCell>
        <mxCell id="n2kh0YCEqvJ2ROsxbAbJ-44" value="" style="rounded=1;whiteSpace=wrap;html=1;" vertex="1" parent="1">
          <mxGeometry x="-31.25" y="405" width="320" height="110" as="geometry" />
        </mxCell>
        <mxCell id="n2kh0YCEqvJ2ROsxbAbJ-45" value="VertexBuffer" style="rounded=0;whiteSpace=wrap;html=1;fillColor=#dae8fc;strokeColor=#6c8ebf;" vertex="1" parent="1">
          <mxGeometry x="-1.25" y="430" width="120" height="60" as="geometry" />
        </mxCell>
        <mxCell id="n2kh0YCEqvJ2ROsxbAbJ-47" value="aug::Mesh" style="text;html=1;align=center;verticalAlign=middle;whiteSpace=wrap;rounded=0;" vertex="1" parent="1">
          <mxGeometry x="98.75" y="405" width="60" height="30" as="geometry" />
        </mxCell>
        <mxCell id="n2kh0YCEqvJ2ROsxbAbJ-49" value="IndexBuffer" style="rounded=0;whiteSpace=wrap;html=1;fillColor=#dae8fc;strokeColor=#6c8ebf;" vertex="1" parent="1">
          <mxGeometry x="138.75" y="430" width="120" height="60" as="geometry" />
        </mxCell>
        <mxCell id="n2kh0YCEqvJ2ROsxbAbJ-51" value="" style="endArrow=none;dashed=1;html=1;dashPattern=1 3;strokeWidth=2;rounded=0;entryX=0.5;entryY=1;entryDx=0;entryDy=0;exitX=0.5;exitY=0;exitDx=0;exitDy=0;" edge="1" parent="1" source="n2kh0YCEqvJ2ROsxbAbJ-40" target="n2kh0YCEqvJ2ROsxbAbJ-45">
          <mxGeometry width="50" height="50" relative="1" as="geometry">
            <mxPoint x="560" y="290" as="sourcePoint" />
            <mxPoint x="610" y="240" as="targetPoint" />
          </mxGeometry>
        </mxCell>
        <mxCell id="n2kh0YCEqvJ2ROsxbAbJ-52" value="" style="endArrow=none;dashed=1;html=1;dashPattern=1 3;strokeWidth=2;rounded=0;exitX=0.5;exitY=1;exitDx=0;exitDy=0;entryX=0.5;entryY=0;entryDx=0;entryDy=0;" edge="1" parent="1" source="n2kh0YCEqvJ2ROsxbAbJ-49" target="n2kh0YCEqvJ2ROsxbAbJ-40">
          <mxGeometry width="50" height="50" relative="1" as="geometry">
            <mxPoint x="560" y="290" as="sourcePoint" />
            <mxPoint x="610" y="240" as="targetPoint" />
          </mxGeometry>
        </mxCell>
      </root>
    </mxGraphModel>
  </diagram>
</mxfile>
